{
  "accessors": [
    {
      "bufferView": 1,
      "componentType": 5126,
      "count": 18,
      "max": [
        56.65999984741211,
        -0.0,
        29.5
      ],
      "min": [
        39.34000015258789,
        -20.0,
        14.5
      ],
      "type": "VEC3"
    },
    {
      "bufferView": 1,
      "byteOffset": 216,
      "componentType": 5126,
      "count": 18,
      "max": [
        0.8660317063331604,
        1.0,
        1.0
      ],
      "min": [
        -0.8660317063331604,
        -1.0,
        -0.49998897314071655
      ],
      "type": "VEC3"
    },
    {
      "bufferView": 0,
      "componentType": 5125,
      "count": 24,
      "type": "SCALAR"
    }
  ],
  "asset": {
    "extras": {
      "author": "drsingh (https://sketchfab.com/drsingh)",
      "license": "CC-BY-4.0 (http://creativecommons.org/licenses/by/4.0/)",
      "source": "https://sketchfab.com/3d-models/triangular-prism-e5dcb6d700e84ad7875578f1d34dc0d0",
      "title": "Triangular prism"
    },
    "generator": "Sketchfab-15.36.0",
    "version": "2.0"
  },
  "bufferViews": [
    {
      "buffer": 0,
      "byteLength": 96,
      "name": "floatBufferViews",
      "target": 34963
    },
    {
      "buffer": 0,
      "byteLength": 432,
      "byteOffset": 96,
      "byteStride": 12,
      "name": "floatBufferViews",
      "target": 34962
    }
  ],
  "buffers": [
    {
      "byteLength": 528,
      "uri": "prism.bin"
    }
  ],
  "materials": [
    {
      "doubleSided": true,
      "name": "color_3888547",
      "pbrMetallicRoughness": {
        "baseColorFactor": [
          0.7420442977549044,
          0.7742154900517375,
          0.011296292460075184,
          1.0
        ],
        "metallicFactor": 0.0,
        "roughnessFactor": 0.556973959248634
      }
    }
  ],
  "meshes": [
    {
      "name": "Object_0",
      "primitives": [
        {
          "attributes": {
            "NORMAL": 1,
            "POSITION": 0
          },
          "indices": 2,
          "material": 0,
          "mode": 4
        }
      ]
    }
  ],
  "nodes": [
    {
      "children": [
        1
      ],
      "matrix": [
        -0.10631062835454941,
        -1.7096052651780233e-17,
        -5.106465921191832e-33,
        0.0,
        1.7096052651780233e-17,
        -0.10631062835454941,
        -4.721140294463551e-17,
        0.0,
        1.3103796643497564e-33,
        -4.721140294463551e-17,
        0.10631062835454941,
        0.0,
        0.0,
        0.0,
        0.0,
        1.0
      ],
      "name": "Sketchfab_model"
    },
    {
      "children": [
        2
      ],
      "name": "tinker.obj.cleaner.materialmerger.gles"
    },
    {
      "mesh": 0,
      "name": "Object_2"
    }
  ],
  "scene": 0,
  "scenes": [
    {
      "name": "Sketchfab_Scene",
      "nodes": [
        0
      ]
    }
  ]
}
